<svg width="406" height="472" viewBox="0 0 406 472" fill="none" xmlns="http://www.w3.org/2000/svg">
<path d="M439.142 322.005C433.445 309.679 425.587 297.542 414.094 283.522C385.117 248.332 376.276 169.86 376.178 169.108C375.785 165.344 373.035 162.239 369.4 161.11C365.668 159.981 361.64 161.016 358.988 163.838C324.412 201.193 338.95 258.87 346.808 281.923C348.969 288.227 351.326 295.66 352.995 303.187C365.765 364.064 341.11 391.633 335.314 397.184C329.715 398.689 325.884 397.937 322.348 394.267C310.168 381.377 306.141 339.13 311.838 284.087C313.018 272.89 312.722 262.822 311.052 253.413C299.037 185.759 254.982 142.362 243.766 127.143C212.923 83.1085 209.779 9.81165 209.681 9.15302C209.583 5.67165 207.52 2.56665 204.279 1.0612C201.135 -0.444256 197.304 -0.256073 194.358 1.71984C142.886 35.4985 147.307 116.887 154.477 162.333C156.147 172.871 159.389 183.598 164.988 197.147C184.928 245.604 161.058 308.174 160.862 308.739C160.666 309.303 160.469 309.773 160.371 310.338C157.326 325.769 152.218 334.99 146.521 334.99C145.931 334.99 145.342 334.896 144.654 334.708C137.68 333.296 134.046 326.145 133.948 319.935C133.555 239.676 50.1594 212.672 49.2754 212.389C45.5427 211.26 41.4171 212.295 38.8632 215.212C36.2111 218.129 35.7199 222.175 37.488 225.562C38.4703 227.538 41.6136 236.194 39.4526 266.774C37.5863 294.249 32.3802 321.441 24.0308 347.504C4.18885 409.98 7.33213 469.164 7.52858 471.986C22.7863 632.23 261.387 660.308 402.993 570.029C418.513 560.149 431.185 548.859 440.516 536.439C492.774 466.811 462.029 372.25 439.142 322.005ZM76.1907 475.091C76.4854 480.266 72.3598 484.689 66.9573 484.971H66.368C61.1619 484.971 56.8399 481.113 56.5452 476.126C55.6611 462.389 55.8576 447.993 56.9381 432.374C57.331 427.199 62.0459 423.341 67.4485 423.623C72.851 423.999 76.9766 428.515 76.5836 433.69C75.5022 448.558 75.3067 462.107 76.1907 475.091ZM81.0029 391.727C80.4135 396.525 76.1898 400.007 71.2784 400.007C70.8855 400.007 70.4925 400.007 70.0014 399.913C64.6971 399.254 60.8662 394.643 61.4556 389.469L66.1705 353.149C66.8581 348.069 71.6713 344.399 77.172 344.964C82.5745 345.622 86.4054 350.327 85.7178 355.502L81.0029 391.727Z" fill="#3D3D3D"/>
<path d="M372.687 128.726C367.33 127.931 363.656 123.135 364.481 118.003C365.095 114.18 368.644 94.6093 378.275 84.7683C381.982 80.9736 388.189 80.776 392.16 84.3411C396.117 87.8921 396.318 93.8471 392.606 97.6418C388.53 101.809 385.057 113.735 383.897 120.871C383.068 125.948 378.124 129.511 372.687 128.726Z" fill="#3D3D3D"/>
<path d="M14.5881 175.594C12.708 168.597 8.03633 157.056 3.55224 153.289C-0.529126 149.861 -0.936772 143.917 2.64068 140.012C6.20929 136.098 12.4104 135.698 16.5016 139.139C27.0866 148.028 32.6168 167.173 33.6197 170.917C34.9625 175.948 31.7976 181.066 26.5503 182.361C21.1871 183.653 15.925 180.541 14.5881 175.594Z" fill="#3D3D3D"/>
</svg>
